<svg width="58" height="36" xmlns="http://www.w3.org/2000/svg" xmlns:xlink="http://www.w3.org/1999/xlink" xml:space="preserve" overflow="hidden"><defs><clipPath id="clip0"><rect x="186" y="548" width="58" height="36"/></clipPath><clipPath id="clip1"><rect x="187" y="548" width="57" height="35"/></clipPath><clipPath id="clip2"><rect x="187" y="548" width="57" height="35"/></clipPath><clipPath id="clip3"><rect x="187" y="548" width="57" height="35"/></clipPath><clipPath id="clip4"><rect x="187" y="548" width="57" height="35"/></clipPath></defs><g clip-path="url(#clip0)" transform="translate(-186 -548)"><g clip-path="url(#clip1)"><g clip-path="url(#clip2)"><g clip-path="url(#clip3)"><g clip-path="url(#clip4)"><path d="M117.021 44.6735C117.021 42.0628 119.138 39.9463 121.749 39.9463L168.645 39.9463C171.256 39.9463 173.372 42.0628 173.372 44.6735 173.372 47.2843 171.256 49.4008 168.645 49.4008L121.749 49.4007C119.138 49.4007 117.021 47.2842 117.021 44.6735Z" fill="#000000" fill-rule="evenodd" fill-opacity="1" transform="matrix(1.00372 0 0 1 69.7949 508.116)"/><path d="M117.021 57.3838C117.021 54.773 119.138 52.6565 121.749 52.6565L168.645 52.6565C171.256 52.6565 173.372 54.773 173.372 57.3838 173.372 59.9945 171.256 62.111 168.645 62.111L121.749 62.1109C119.138 62.1109 117.021 59.9944 117.021 57.3837Z" fill="#000000" fill-rule="evenodd" fill-opacity="1" transform="matrix(1.00372 0 0 1 69.7949 508.116)"/><path d="M117.021 70.0939C117.021 67.483 119.138 65.3667 121.749 65.3667L168.645 65.3667C171.256 65.3667 173.372 67.483 173.372 70.0939 173.372 72.7048 171.256 74.8211 168.645 74.8211L121.749 74.8211C119.138 74.8211 117.021 72.7048 117.021 70.0939Z" fill="#000000" fill-rule="evenodd" fill-opacity="1" transform="matrix(1.00372 0 0 1 69.7949 508.116)"/></g></g></g></g></g></svg>