<svg width="60" height="52" xmlns="http://www.w3.org/2000/svg" xmlns:xlink="http://www.w3.org/1999/xlink" xml:space="preserve" overflow="hidden"><defs><clipPath id="clip0"><rect x="356" y="518" width="60" height="52"/></clipPath><clipPath id="clip1"><rect x="357" y="519" width="59" height="51"/></clipPath><clipPath id="clip2"><rect x="357" y="519" width="59" height="51"/></clipPath><clipPath id="clip3"><rect x="357" y="519" width="59" height="51"/></clipPath><clipPath id="clip4"><rect x="357" y="519" width="59" height="51"/></clipPath></defs><g clip-path="url(#clip0)" transform="translate(-356 -518)"><g clip-path="url(#clip1)"><g clip-path="url(#clip2)"><g clip-path="url(#clip3)"><g clip-path="url(#clip4)"><path d="M102.922 45.0694C102.922 43.5307 104.169 42.2833 105.708 42.2833L158.808 42.2833C160.347 42.2833 161.594 43.5307 161.594 45.0694 161.594 46.6082 160.347 47.8556 158.808 47.8556L105.708 47.8556C104.169 47.8556 102.922 46.6082 102.922 45.0694Z" fill="#FFFFFF" fill-rule="evenodd" fill-opacity="1" transform="matrix(1 0 0 1.51061 254.16 455.498)"/><path d="M102.922 58.9181C102.922 57.3793 104.169 56.1319 105.708 56.1319L158.808 56.1319C160.347 56.1319 161.594 57.3793 161.594 58.9181 161.594 60.4568 160.347 61.7042 158.808 61.7042L105.708 61.7042C104.169 61.7042 102.922 60.4568 102.922 58.9181Z" fill="#FFFFFF" fill-rule="evenodd" fill-opacity="1" transform="matrix(1 0 0 1.51061 254.16 455.498)"/><path d="M102.922 72.7257C102.922 71.1643 104.188 69.8986 105.749 69.8986L158.767 69.8986C160.328 69.8986 161.594 71.1643 161.594 72.7257 161.594 74.2871 160.328 75.5529 158.767 75.5529L105.749 75.5528C104.188 75.5528 102.922 74.2871 102.922 72.7256Z" fill="#FFFFFF" fill-rule="evenodd" fill-opacity="1" transform="matrix(1 0 0 1.51061 254.16 455.498)"/></g></g></g></g></g></svg>