<svg width="49" height="48" xmlns="http://www.w3.org/2000/svg" xmlns:xlink="http://www.w3.org/1999/xlink" xml:space="preserve" overflow="hidden"><defs><clipPath id="clip0"><rect x="841" y="336" width="49" height="48"/></clipPath><clipPath id="clip1"><rect x="842" y="337" width="48" height="46"/></clipPath><clipPath id="clip2"><rect x="842" y="337" width="48" height="46"/></clipPath><clipPath id="clip3"><rect x="842" y="337" width="48" height="46"/></clipPath><clipPath id="clip4"><rect x="842" y="337" width="48" height="46"/></clipPath></defs><g clip-path="url(#clip0)" transform="translate(-841 -336)"><g clip-path="url(#clip1)"><g clip-path="url(#clip2)"><g clip-path="url(#clip3)"><g clip-path="url(#clip4)"><path d="M82.5252 43.2504C83.8461 41.934 85.9836 41.9375 87.3002 43.2582L124.723 80.8047C126.04 82.1255 126.036 84.263 124.716 85.5797L123.324 86.9669C122.003 88.2836 119.865 88.28 118.549 86.9591L81.1255 49.4127C79.8088 48.092 79.8124 45.9542 81.1332 44.6378Z" fill="#000000" fill-rule="evenodd" fill-opacity="1" transform="matrix(1.03675 0 0 1 759.44 294.883)"/><path d="M80.8835 85.3198C79.5704 83.9936 79.5812 81.8543 80.9068 80.5412L118.572 43.2444C119.898 41.9313 122.037 41.9418 123.35 43.2679L124.729 44.6607C126.042 45.9867 126.032 48.1261 124.706 49.4392L87.041 86.7363C85.7153 88.0494 83.576 88.0386 82.2629 86.7124Z" fill="#000000" fill-rule="evenodd" fill-opacity="1" transform="matrix(1.03675 0 0 1 759.44 294.883)"/></g></g></g></g></g></svg>